<svg width="27.000000" height="17.000000" viewBox="0 0 27 17" fill="none" xmlns="http://www.w3.org/2000/svg" xmlns:xlink="http://www.w3.org/1999/xlink">
	<desc>
			Created with Pixso.
	</desc>
	<defs/>
	<path id="path" d="M9.91 7.28C11.38 8.13 12.12 9.41 12.12 11.12C12.12 12.55 11.61 13.72 10.61 14.63C9.6 15.54 8.36 16 6.89 16L-0.24 16L-0.24 -0.81L6.38 -0.81C7.82 -0.81 9.03 -0.36 10.01 0.54C11 1.42 11.49 2.55 11.49 3.92C11.49 5.31 10.97 6.44 9.91 7.28ZM6.38 2.29L3.07 2.29L3.07 5.99L6.38 5.99C6.89 5.99 7.32 5.81 7.65 5.46C8.01 5.11 8.18 4.67 8.18 4.14C8.18 3.61 8.01 3.17 7.68 2.82C7.34 2.47 6.91 2.29 6.38 2.29ZM6.89 12.9C7.45 12.9 7.91 12.72 8.28 12.35C8.65 11.96 8.83 11.48 8.83 10.91C8.83 10.35 8.65 9.88 8.28 9.51C7.91 9.13 7.45 8.94 6.89 8.94L3.07 8.94L3.07 12.9L6.89 12.9ZM16.95 11.27C17.37 12.77 18.49 13.52 20.33 13.52C21.52 13.52 22.41 13.12 23.02 12.32L25.52 13.76C24.33 15.48 22.59 16.33 20.29 16.33C18.3 16.33 16.71 15.73 15.51 14.53C14.31 13.33 13.71 11.82 13.71 10C13.71 8.19 14.3 6.68 15.49 5.48C16.67 4.27 18.19 3.66 20.04 3.66C21.81 3.66 23.25 4.27 24.39 5.48C25.54 6.7 26.12 8.2 26.12 10C26.12 10.4 26.08 10.82 26 11.27L16.95 11.27ZM16.9 8.87L23.02 8.87C22.85 8.05 22.48 7.44 21.92 7.04C21.37 6.64 20.75 6.44 20.04 6.44C19.21 6.44 18.53 6.66 17.98 7.09C17.44 7.51 17.08 8.1 16.9 8.87Z" fill="#F25822" fill-opacity="1.000000" fill-rule="nonzero"/>
</svg>
