<svg width="58.000000" height="18.000000" viewBox="0 0 58 18" fill="none" xmlns="http://www.w3.org/2000/svg" xmlns:xlink="http://www.w3.org/1999/xlink">
	<desc>
			Created with Pixso.
	</desc>
	<defs/>
	<path id="path" d="M17.04 7.97L17.04 9.27C17.04 11.67 16.28 13.61 14.74 15.1C13.2 16.59 11.22 17.33 8.79 17.33C6.2 17.33 4.04 16.49 2.33 14.81C0.64 13.12 -0.21 11.05 -0.21 8.62C-0.21 6.17 0.63 4.1 2.31 2.4C4 0.71 6.1 -0.14 8.6 -0.14C10.16 -0.14 11.6 0.22 12.89 0.94C14.19 1.64 15.2 2.59 15.92 3.77L13.08 5.4C12.68 4.71 12.08 4.16 11.26 3.72C10.46 3.29 9.56 3.08 8.57 3.08C6.97 3.08 5.65 3.6 4.61 4.66C3.59 5.7 3.07 7.02 3.07 8.62C3.07 10.2 3.6 11.52 4.64 12.56C5.69 13.58 7.08 14.09 8.81 14.09C10.09 14.09 11.15 13.81 11.98 13.25C12.83 12.68 13.4 11.89 13.71 10.9L8.62 10.9L8.62 7.97L17.04 7.97ZM22.35 7.06C22.64 6.29 23.11 5.72 23.77 5.33C24.44 4.95 25.18 4.75 26 4.75L26 8.21C25.06 8.1 24.21 8.29 23.46 8.79C22.72 9.28 22.35 10.11 22.35 11.26L22.35 17L19.26 17L19.26 5L22.35 5L22.35 7.06ZM37.59 15.51C36.36 16.72 34.85 17.33 33.08 17.33C31.3 17.33 29.8 16.72 28.56 15.51C27.35 14.28 26.74 12.77 26.74 11C26.74 9.22 27.35 7.72 28.56 6.51C29.8 5.28 31.3 4.66 33.08 4.66C34.85 4.66 36.36 5.28 37.59 6.51C38.82 7.72 39.44 9.22 39.44 11C39.44 12.77 38.82 14.28 37.59 15.51ZM30.75 13.37C31.37 14 32.15 14.31 33.08 14.31C34 14.31 34.78 14 35.4 13.37C36.03 12.75 36.34 11.96 36.34 11C36.34 10.04 36.03 9.24 35.4 8.62C34.78 8 34 7.68 33.08 7.68C32.15 7.68 31.37 8 30.75 8.62C30.14 9.24 29.84 10.04 29.84 11C29.84 11.96 30.14 12.75 30.75 13.37ZM54.66 5L57.95 5L54.13 17L51.18 17L48.97 9.72L46.76 17L43.81 17L39.99 5L43.28 5L45.32 12.36L47.51 5L50.43 5L52.62 12.39L54.66 5Z" fill="#000000" fill-opacity="1.000000" fill-rule="nonzero"/>
</svg>
