<svg width="314.000000" height="76.000000" viewBox="0 0 314 76" fill="none" xmlns="http://www.w3.org/2000/svg" xmlns:xlink="http://www.w3.org/1999/xlink">
	<desc>
			Created with Pixso.
	</desc>
	<defs/>
	<path id="path" d="M313.5 38C313.5 42.95 309.33 47.82 301.41 52.35C293.52 56.87 282.08 60.95 267.89 64.38C239.53 71.24 200.32 75.5 157 75.5C113.67 75.5 74.46 71.24 46.1 64.38C31.91 60.95 20.47 56.87 12.58 52.35C4.66 47.82 0.5 42.95 0.5 38C0.5 33.04 4.66 28.17 12.58 23.64C20.47 19.12 31.91 15.04 46.1 11.61C74.46 4.75 113.67 0.5 157 0.5C200.32 0.5 239.53 4.75 267.89 11.61C282.08 15.04 293.52 19.12 301.41 23.64C309.33 28.17 313.5 33.04 313.5 38Z" fill="#000000" fill-opacity="0" fill-rule="nonzero"/>
	<path id="path" d="M301.41 52.35C293.52 56.87 282.08 60.95 267.89 64.38C239.53 71.24 200.32 75.5 157 75.5C113.67 75.5 74.46 71.24 46.1 64.38C31.91 60.95 20.47 56.87 12.58 52.35C4.66 47.82 0.5 42.95 0.5 38C0.5 33.04 4.66 28.17 12.58 23.64C20.47 19.12 31.91 15.04 46.1 11.61C74.46 4.75 113.67 0.5 157 0.5C200.32 0.5 239.53 4.75 267.89 11.61C282.08 15.04 293.52 19.12 301.41 23.64C309.33 28.17 313.5 33.04 313.5 38C313.5 42.95 309.33 47.82 301.41 52.35Z" stroke="#F25822" stroke-opacity="1.000000" stroke-width="1.000000"/>
</svg>
