<svg width="520.000000" height="192.000000" viewBox="0 0 520 192" fill="none" xmlns="http://www.w3.org/2000/svg" xmlns:xlink="http://www.w3.org/1999/xlink">
	<desc>
			Created with Pixso.
	</desc>
	<defs/>
	<path id="path" d="M17.24 43.84C13.08 43.84 9.57 42.92 6.73 41.08C3.89 39.2 1.89 36.66 0.73 33.46L7.81 29.32C9.45 33.59 12.68 35.74 17.48 35.74C19.79 35.74 21.5 35.32 22.58 34.48C23.66 33.64 24.2 32.58 24.2 31.3C24.2 29.82 23.54 28.68 22.22 27.88C20.9 27.04 18.54 26.14 15.14 25.18C13.26 24.62 11.66 24.06 10.34 23.5C9.05 22.94 7.75 22.2 6.43 21.28C5.15 20.32 4.17 19.12 3.49 17.68C2.81 16.24 2.47 14.56 2.47 12.64C2.47 8.83 3.81 5.81 6.49 3.57C9.21 1.29 12.48 0.15 16.28 0.15C19.68 0.15 22.66 0.99 25.22 2.67C27.82 4.31 29.84 6.61 31.28 9.57L24.32 13.6C22.64 9.99 19.95 8.19 16.28 8.19C14.56 8.19 13.2 8.59 12.2 9.39C11.24 10.16 10.76 11.16 10.76 12.4C10.76 13.72 11.3 14.8 12.38 15.64C13.5 16.44 15.62 17.32 18.74 18.28C20.02 18.68 20.98 19 21.62 19.24C22.3 19.44 23.2 19.78 24.32 20.26C25.48 20.7 26.36 21.12 26.96 21.52C27.6 21.92 28.32 22.46 29.12 23.14C29.92 23.82 30.52 24.52 30.92 25.24C31.36 25.96 31.72 26.84 32 27.88C32.32 28.88 32.48 29.98 32.48 31.18C32.48 35.06 31.06 38.14 28.22 40.41C25.42 42.7 21.76 43.84 17.24 43.84ZM45.86 35.08L63.56 35.08L63.56 43L37.58 43L37.58 0.99L63.26 0.99L63.26 8.91L45.86 8.91L45.86 17.86L61.76 17.86L61.76 25.66L45.86 25.66L45.86 35.08ZM104.45 37.54C100.21 41.74 95.05 43.84 88.97 43.84C82.89 43.84 77.73 41.74 73.49 37.54C69.29 33.3 67.19 28.12 67.19 22C67.19 15.88 69.29 10.72 73.49 6.51C77.73 2.27 82.89 0.15 88.97 0.15C95.05 0.15 100.21 2.27 104.45 6.51C108.69 10.72 110.81 15.88 110.81 22C110.81 28.12 108.69 33.3 104.45 37.54ZM79.31 31.9C81.91 34.46 85.13 35.74 88.97 35.74C92.81 35.74 96.03 34.46 98.63 31.9C101.23 29.3 102.53 26 102.53 22C102.53 18 101.23 14.7 98.63 12.1C96.03 9.49 92.81 8.19 88.97 8.19C85.13 8.19 81.91 9.49 79.31 12.1C76.71 14.7 75.41 18 75.41 22C75.41 26 76.71 29.3 79.31 31.9ZM166.85 40.59L160.25 44.38L156.41 40.24C153.17 42.64 149.41 43.84 145.13 43.84C140.81 43.84 137.27 42.72 134.5 40.48C131.78 38.2 130.42 35.16 130.42 31.36C130.42 28.88 131.03 26.58 132.23 24.46C133.42 22.34 135.17 20.62 137.45 19.29C136.09 17.14 135.41 14.8 135.41 12.28C135.41 8.71 136.64 5.81 139.13 3.57C141.61 1.29 144.75 0.15 148.55 0.15C151.55 0.15 154.23 0.93 156.59 2.49C158.99 4.01 160.77 6.23 161.92 9.15L154.85 13.24C153.69 9.87 151.63 8.19 148.67 8.19C147.23 8.19 146.03 8.61 145.07 9.45C144.14 10.3 143.69 11.36 143.69 12.64C143.69 13.76 143.95 14.78 144.47 15.7C145.03 16.62 145.91 17.71 147.11 19L156.11 28.84C156.99 26.96 157.67 24.64 158.14 21.88L165.11 25.84C164.35 29.08 163.13 32.02 161.45 34.66L166.85 40.59ZM145.67 36.22C147.75 36.22 149.61 35.72 151.25 34.72L142.19 24.88C142.11 24.8 142.07 24.74 142.07 24.7C139.87 26.06 138.77 28 138.77 30.52C138.77 32.24 139.35 33.62 140.5 34.66C141.71 35.7 143.42 36.22 145.67 36.22ZM203.68 0.99C209.44 0.99 214.24 3.01 218.08 7.05C221.96 11.1 223.9 16.08 223.9 22C223.9 27.92 221.96 32.9 218.08 36.93C214.24 40.98 209.44 43 203.68 43L187 43L187 0.99L203.68 0.99ZM203.68 35.08C207.32 35.08 210.28 33.88 212.56 31.48C214.84 29.04 215.98 25.88 215.98 22C215.98 18.12 214.84 14.98 212.56 12.58C210.28 10.14 207.32 8.91 203.68 8.91L195.28 8.91L195.28 35.08L203.68 35.08ZM233.25 9.39C231.97 9.39 230.85 8.93 229.89 8.01C228.97 7.05 228.51 5.93 228.51 4.65C228.51 3.37 228.97 2.25 229.89 1.29C230.85 0.33 231.97 -0.15 233.25 -0.15C234.57 -0.15 235.69 0.33 236.61 1.29C237.57 2.25 238.05 3.37 238.05 4.65C238.05 5.93 237.57 7.05 236.61 8.01C235.69 8.93 234.57 9.39 233.25 9.39ZM229.41 43L229.41 13L237.15 13L237.15 43L229.41 43ZM267.21 13L274.77 13L274.77 41.56C274.77 46.2 273.23 49.74 270.15 52.18C267.11 54.62 263.43 55.84 259.11 55.84C255.87 55.84 253.01 55.22 250.53 53.98C248.09 52.74 246.21 50.92 244.89 48.52L251.49 44.74C253.01 47.54 255.63 48.94 259.35 48.94C261.79 48.94 263.71 48.3 265.11 47.02C266.51 45.74 267.21 43.92 267.21 41.56L267.21 38.32C264.93 41.36 261.73 42.88 257.61 42.88C253.37 42.88 249.81 41.4 246.93 38.43C244.09 35.43 242.67 31.8 242.67 27.52C242.67 23.28 244.11 19.66 246.99 16.66C249.87 13.66 253.41 12.16 257.61 12.16C261.73 12.16 264.93 13.68 267.21 16.71L267.21 13ZM252.75 33.46C254.35 34.98 256.37 35.74 258.81 35.74C261.25 35.74 263.25 34.98 264.81 33.46C266.41 31.9 267.21 29.92 267.21 27.52C267.21 25.16 266.41 23.22 264.81 21.7C263.25 20.14 261.25 19.36 258.81 19.36C256.37 19.36 254.35 20.14 252.75 21.7C251.19 23.22 250.41 25.16 250.41 27.52C250.41 29.92 251.19 31.9 252.75 33.46ZM285.63 9.39C284.35 9.39 283.23 8.93 282.27 8.01C281.35 7.05 280.89 5.93 280.89 4.65C280.89 3.37 281.35 2.25 282.27 1.29C283.23 0.33 284.35 -0.15 285.63 -0.15C286.95 -0.15 288.07 0.33 288.99 1.29C289.95 2.25 290.43 3.37 290.43 4.65C290.43 5.93 289.95 7.05 288.99 8.01C288.07 8.93 286.95 9.39 285.63 9.39ZM281.79 43L281.79 13L289.53 13L289.53 43L281.79 43ZM313.78 20.44L307 20.44L307 32.91C307 33.96 307.26 34.72 307.78 35.2C308.3 35.68 309.06 35.96 310.06 36.04C311.06 36.08 312.3 36.06 313.78 35.98L313.78 43C308.46 43.6 304.7 43.1 302.5 41.5C300.34 39.9 299.26 37.04 299.26 32.91L299.26 20.44L294.04 20.44L294.04 13L299.26 13L299.26 6.93L307 4.59L307 13L313.78 13L313.78 20.44ZM341.1 13L348.84 13L348.84 43L341.1 43L341.1 39.46C338.78 42.38 335.52 43.84 331.32 43.84C327.32 43.84 323.88 42.32 321 39.28C318.16 36.2 316.74 32.43 316.74 28C316.74 23.56 318.16 19.82 321 16.78C323.88 13.7 327.32 12.16 331.32 12.16C335.52 12.16 338.78 13.62 341.1 16.54L341.1 13ZM326.82 34.12C328.38 35.68 330.36 36.46 332.76 36.46C335.16 36.46 337.14 35.68 338.7 34.12C340.3 32.52 341.1 30.48 341.1 28C341.1 25.52 340.3 23.5 338.7 21.94C337.14 20.34 335.16 19.54 332.76 19.54C330.36 19.54 328.38 20.34 326.82 21.94C325.26 23.5 324.48 25.52 324.48 28C324.48 30.48 325.26 32.52 326.82 34.12ZM355.86 43L355.86 -0.81L363.6 -0.81L363.6 43L355.86 43ZM44 75L44 117L35.78 117L35.78 89.76L23.96 109.26L23 109.26L11.18 89.82L11.18 117L2.89 117L2.89 75L11.42 75L23.48 94.86L35.48 75L44 75ZM74.26 87L82 87L82 117L74.26 117L74.26 113.46C71.94 116.38 68.68 117.84 64.48 117.84C60.48 117.84 57.04 116.32 54.16 113.28C51.32 110.2 49.9 106.44 49.9 102C49.9 97.56 51.32 93.82 54.16 90.78C57.04 87.7 60.48 86.16 64.48 86.16C68.68 86.16 71.94 87.62 74.26 90.54L74.26 87ZM59.98 108.12C61.54 109.68 63.52 110.46 65.92 110.46C68.32 110.46 70.3 109.68 71.86 108.12C73.46 106.52 74.26 104.48 74.26 102C74.26 99.52 73.46 97.5 71.86 95.94C70.3 94.34 68.32 93.54 65.92 93.54C63.52 93.54 61.54 94.34 59.98 95.94C58.42 97.5 57.64 99.52 57.64 102C57.64 104.48 58.42 106.52 59.98 108.12ZM96.76 92.16C97.48 90.24 98.66 88.8 100.3 87.84C101.98 86.88 103.84 86.4 105.88 86.4L105.88 95.04C103.52 94.76 101.4 95.24 99.52 96.48C97.68 97.72 96.76 99.78 96.76 102.66L96.76 117L89.02 117L89.02 87L96.76 87L96.76 92.16ZM138.07 117L129.07 117L118.15 103.38L118.15 117L110.41 117L110.41 75L118.15 75L118.15 100.2L128.47 87L137.71 87L125.65 101.82L138.07 117ZM146.3 105.18C147.34 108.94 150.16 110.82 154.76 110.82C157.72 110.82 159.96 109.82 161.48 107.82L167.72 111.42C164.76 115.7 160.4 117.84 154.64 117.84C149.68 117.84 145.7 116.34 142.7 113.34C139.7 110.34 138.2 106.56 138.2 102C138.2 97.48 139.68 93.72 142.64 90.72C145.6 87.68 149.4 86.16 154.04 86.16C158.44 86.16 162.06 87.68 164.9 90.72C167.78 93.76 169.22 97.52 169.22 102C169.22 103 169.12 104.06 168.92 105.18L146.3 105.18ZM146.18 99.18L161.48 99.18C161.04 97.14 160.12 95.62 158.72 94.62C157.36 93.62 155.8 93.12 154.04 93.12C151.96 93.12 150.24 93.66 148.88 94.74C147.52 95.78 146.62 97.26 146.18 99.18ZM190.91 94.44L184.13 94.44L184.13 106.92C184.13 107.96 184.39 108.72 184.91 109.2C185.43 109.68 186.19 109.96 187.19 110.04C188.19 110.08 189.43 110.06 190.91 109.98L190.91 117C185.59 117.6 181.83 117.1 179.63 115.5C177.47 113.9 176.39 111.04 176.39 106.92L176.39 94.44L171.17 94.44L171.17 87L176.39 87L176.39 80.94L184.13 78.6L184.13 87L190.91 87L190.91 94.44ZM200.2 83.4C198.92 83.4 197.8 82.94 196.84 82.02C195.92 81.06 195.46 79.94 195.46 78.66C195.46 77.37 195.92 76.26 196.84 75.3C197.8 74.33 198.92 73.86 200.2 73.86C201.52 73.86 202.64 74.33 203.56 75.3C204.52 76.26 205 77.37 205 78.66C205 79.94 204.52 81.06 203.56 82.02C202.64 82.94 201.52 83.4 200.2 83.4ZM196.36 117L196.36 87L204.1 87L204.1 117L196.36 117ZM227.87 86.16C231.15 86.16 233.85 87.26 235.97 89.46C238.13 91.66 239.21 94.7 239.21 98.58L239.21 117L231.47 117L231.47 99.54C231.47 97.54 230.93 96.02 229.85 94.98C228.77 93.9 227.33 93.36 225.53 93.36C223.53 93.36 221.93 93.98 220.73 95.22C219.53 96.46 218.93 98.32 218.93 100.8L218.93 117L211.19 117L211.19 87L218.93 87L218.93 90.36C220.81 87.56 223.79 86.16 227.87 86.16ZM268.8 87L276.36 87L276.36 115.56C276.36 120.2 274.82 123.74 271.74 126.18C268.7 128.62 265.02 129.84 260.7 129.84C257.46 129.84 254.6 129.22 252.12 127.98C249.68 126.74 247.8 124.92 246.48 122.52L253.08 118.74C254.6 121.54 257.22 122.94 260.94 122.94C263.38 122.94 265.3 122.3 266.7 121.02C268.1 119.74 268.8 117.92 268.8 115.56L268.8 112.32C266.52 115.36 263.32 116.88 259.2 116.88C254.96 116.88 251.4 115.4 248.52 112.44C245.68 109.44 244.26 105.8 244.26 101.52C244.26 97.28 245.7 93.66 248.58 90.66C251.46 87.66 255 86.16 259.2 86.16C263.32 86.16 266.52 87.68 268.8 90.72L268.8 87ZM254.34 107.46C255.94 108.98 257.96 109.74 260.4 109.74C262.84 109.74 264.84 108.98 266.4 107.46C268 105.9 268.8 103.92 268.8 101.52C268.8 99.16 268 97.22 266.4 95.7C264.84 94.14 262.84 93.36 260.4 93.36C257.96 93.36 255.94 94.14 254.34 95.7C252.78 97.22 252 99.16 252 101.52C252 103.92 252.78 105.9 254.34 107.46ZM323.82 82.92L307.01 82.92L307.01 92.88L323.34 92.88L323.34 100.8L307.01 100.8L307.01 117L298.74 117L298.74 75L323.82 75L323.82 82.92ZM355.05 113.28C351.97 116.32 348.21 117.84 343.77 117.84C339.33 117.84 335.57 116.32 332.49 113.28C329.45 110.2 327.93 106.44 327.93 102C327.93 97.56 329.45 93.82 332.49 90.78C335.57 87.7 339.33 86.16 343.77 86.16C348.21 86.16 351.97 87.7 355.05 90.78C358.13 93.82 359.67 97.56 359.67 102C359.67 106.44 358.13 110.2 355.05 113.28ZM337.95 107.94C339.51 109.5 341.45 110.28 343.77 110.28C346.09 110.28 348.03 109.5 349.59 107.94C351.15 106.38 351.93 104.4 351.93 102C351.93 99.6 351.15 97.62 349.59 96.06C348.03 94.5 346.09 93.72 343.77 93.72C341.45 93.72 339.51 94.5 337.95 96.06C336.43 97.62 335.67 99.6 335.67 102C335.67 104.4 336.43 106.38 337.95 107.94ZM372.85 92.16C373.57 90.24 374.75 88.8 376.39 87.84C378.07 86.88 379.93 86.4 381.97 86.4L381.97 95.04C379.61 94.76 377.49 95.24 375.61 96.48C373.77 97.72 372.85 99.78 372.85 102.66L372.85 117L365.11 117L365.11 87L372.85 87L372.85 92.16ZM435.1 75L420.7 100.62L420.7 117L412.48 117L412.48 100.62L398.14 75L407.5 75L416.62 92.52L425.74 75L435.1 75ZM458.35 113.28C455.27 116.32 451.51 117.84 447.07 117.84C442.63 117.84 438.87 116.32 435.79 113.28C432.75 110.2 431.23 106.44 431.23 102C431.23 97.56 432.75 93.82 435.79 90.78C438.87 87.7 442.63 86.16 447.07 86.16C451.51 86.16 455.27 87.7 458.35 90.78C461.43 93.82 462.97 97.56 462.97 102C462.97 106.44 461.43 110.2 458.35 113.28ZM441.25 107.94C442.81 109.5 444.75 110.28 447.07 110.28C449.39 110.28 451.33 109.5 452.89 107.94C454.45 106.38 455.23 104.4 455.23 102C455.23 99.6 454.45 97.62 452.89 96.06C451.33 94.5 449.39 93.72 447.07 93.72C444.75 93.72 442.81 94.5 441.25 96.06C439.73 97.62 438.97 99.6 438.97 102C438.97 104.4 439.73 106.38 441.25 107.94ZM488.21 87L495.95 87L495.95 117L488.21 117L488.21 113.64C486.33 116.44 483.35 117.84 479.27 117.84C475.99 117.84 473.27 116.74 471.11 114.54C468.99 112.34 467.93 109.3 467.93 105.42L467.93 87L475.67 87L475.67 104.46C475.67 106.46 476.21 108 477.29 109.08C478.37 110.12 479.81 110.64 481.61 110.64C483.61 110.64 485.21 110.02 486.41 108.78C487.61 107.54 488.21 105.68 488.21 103.2L488.21 87ZM510.78 92.16C511.5 90.24 512.68 88.8 514.32 87.84C516 86.88 517.86 86.4 519.9 86.4L519.9 95.04C517.54 94.76 515.42 95.24 513.54 96.48C511.7 97.72 510.78 99.78 510.78 102.66L510.78 117L503.04 117L503.04 87L510.78 87L510.78 92.16ZM11.66 191L-0.11 149L8.59 149L16.64 180.14L25.4 149L32.48 149L41.3 180.14L49.34 149L58.04 149L46.28 191L36.86 191L28.94 163.28L21.08 191L11.66 191ZM65.44 179.18C66.48 182.94 69.3 184.82 73.9 184.82C76.86 184.82 79.1 183.82 80.62 181.82L86.86 185.42C83.9 189.7 79.54 191.84 73.78 191.84C68.82 191.84 64.84 190.34 61.84 187.34C58.84 184.34 57.34 180.56 57.34 176C57.34 171.48 58.82 167.72 61.78 164.72C64.74 161.67 68.54 160.16 73.18 160.16C77.58 160.16 81.2 161.67 84.04 164.72C86.92 167.76 88.36 171.52 88.36 176C88.36 177 88.26 178.06 88.06 179.18L65.44 179.18ZM65.32 173.18L80.62 173.18C80.18 171.14 79.26 169.62 77.86 168.62C76.5 167.62 74.94 167.12 73.18 167.12C71.1 167.12 69.38 167.66 68.02 168.74C66.66 169.78 65.76 171.26 65.32 173.18ZM111.23 160.16C115.27 160.16 118.71 161.7 121.55 164.78C124.43 167.82 125.87 171.56 125.87 176C125.87 180.44 124.43 184.2 121.55 187.28C118.71 190.32 115.27 191.84 111.23 191.84C107.03 191.84 103.79 190.38 101.51 187.46L101.51 191L93.77 191L93.77 149L101.51 149L101.51 164.54C103.79 161.62 107.03 160.16 111.23 160.16ZM103.85 182.12C105.41 183.68 107.39 184.46 109.79 184.46C112.19 184.46 114.17 183.68 115.73 182.12C117.33 180.52 118.13 178.48 118.13 176C118.13 173.52 117.33 171.5 115.73 169.94C114.17 168.34 112.19 167.54 109.79 167.54C107.39 167.54 105.41 168.34 103.85 169.94C102.29 171.5 101.51 173.52 101.51 176C101.51 178.48 102.29 180.52 103.85 182.12ZM137.82 169.52C137.82 170.32 138.34 170.98 139.38 171.5C140.46 171.98 141.76 172.42 143.28 172.82C144.8 173.18 146.32 173.66 147.84 174.26C149.36 174.82 150.64 175.78 151.68 177.14C152.76 178.5 153.3 180.2 153.3 182.24C153.3 185.32 152.14 187.7 149.82 189.38C147.54 191.02 144.68 191.84 141.24 191.84C135.08 191.84 130.88 189.46 128.64 184.7L135.36 180.92C136.24 183.52 138.2 184.82 141.24 184.82C144 184.82 145.38 183.96 145.38 182.24C145.38 181.44 144.84 180.8 143.76 180.32C142.72 179.8 141.44 179.34 139.92 178.94C138.4 178.54 136.88 178.04 135.36 177.44C133.84 176.84 132.54 175.9 131.46 174.62C130.42 173.3 129.9 171.66 129.9 169.7C129.9 166.74 130.98 164.42 133.14 162.74C135.34 161.02 138.06 160.16 141.3 160.16C143.74 160.16 145.96 160.72 147.96 161.84C149.96 162.92 151.54 164.48 152.7 166.52L146.1 170.12C145.14 168.08 143.54 167.06 141.3 167.06C140.3 167.06 139.46 167.28 138.78 167.72C138.14 168.16 137.82 168.76 137.82 169.52ZM162.12 157.39C160.84 157.39 159.72 156.94 158.76 156.02C157.84 155.06 157.38 153.94 157.38 152.66C157.38 151.38 157.84 150.25 158.76 149.3C159.72 148.34 160.84 147.86 162.12 147.86C163.44 147.86 164.56 148.34 165.48 149.3C166.44 150.25 166.92 151.38 166.92 152.66C166.92 153.94 166.44 155.06 165.48 156.02C164.56 156.94 163.44 157.39 162.12 157.39ZM158.28 191L158.28 161L166.02 161L166.02 191L158.28 191ZM190.26 168.44L183.48 168.44L183.48 180.92C183.48 181.96 183.74 182.72 184.26 183.2C184.78 183.68 185.54 183.96 186.54 184.04C187.54 184.08 188.78 184.06 190.26 183.98L190.26 191C184.94 191.6 181.18 191.1 178.98 189.5C176.82 187.9 175.74 185.04 175.74 180.92L175.74 168.44L170.52 168.44L170.52 161L175.74 161L175.74 154.94L183.48 152.6L183.48 161L190.26 161L190.26 168.44ZM201.32 179.18C202.36 182.94 205.18 184.82 209.78 184.82C212.74 184.82 214.98 183.82 216.5 181.82L222.74 185.42C219.78 189.7 215.42 191.84 209.66 191.84C204.7 191.84 200.72 190.34 197.72 187.34C194.72 184.34 193.22 180.56 193.22 176C193.22 171.48 194.7 167.72 197.66 164.72C200.62 161.67 204.42 160.16 209.06 160.16C213.46 160.16 217.08 161.67 219.92 164.72C222.8 167.76 224.24 171.52 224.24 176C224.24 177 224.14 178.06 223.94 179.18L201.32 179.18ZM201.2 173.18L216.5 173.18C216.06 171.14 215.14 169.62 213.74 168.62C212.38 167.62 210.82 167.12 209.06 167.12C206.98 167.12 205.26 167.66 203.9 168.74C202.54 169.78 201.64 171.26 201.2 173.18ZM235.34 190.28C234.34 191.28 233.14 191.78 231.74 191.78C230.34 191.78 229.14 191.28 228.14 190.28C227.14 189.28 226.64 188.08 226.64 186.68C226.64 185.28 227.14 184.08 228.14 183.08C229.14 182.08 230.34 181.58 231.74 181.58C233.14 181.58 234.34 182.08 235.34 183.08C236.34 184.08 236.84 185.28 236.84 186.68C236.84 188.08 236.34 189.28 235.34 190.28Z" fill="#000000" fill-opacity="1.000000" fill-rule="nonzero"/>
</svg>
