<svg width="88.000000" height="11.000000" viewBox="0 0 88 11" fill="none" xmlns="http://www.w3.org/2000/svg" xmlns:xlink="http://www.w3.org/1999/xlink">
	<desc>
			Created with Pixso.
	</desc>
	<defs/>
	<path id="path" d="M2.16 10L-0.78 -0.5L1.4 -0.5L3.4 7.28L5.59 -0.5L7.37 -0.5L9.57 7.28L11.58 -0.5L13.76 -0.5L10.82 10L8.46 10L6.48 3.07L4.52 10L2.16 10ZM19.67 2.5L21.61 2.5L21.61 10L19.67 10L19.67 9.11C19.09 9.84 18.28 10.21 17.23 10.21C16.23 10.21 15.37 9.83 14.65 9.07C13.94 8.29 13.58 7.35 13.58 6.25C13.58 5.14 13.94 4.2 14.65 3.44C15.37 2.67 16.23 2.28 17.23 2.28C18.28 2.28 19.09 2.65 19.67 3.38L19.67 2.5ZM16.1 7.78C16.49 8.16 16.99 8.36 17.59 8.36C18.19 8.36 18.68 8.16 19.07 7.78C19.47 7.38 19.67 6.87 19.67 6.25C19.67 5.63 19.47 5.12 19.07 4.73C18.68 4.33 18.19 4.13 17.59 4.13C16.99 4.13 16.49 4.33 16.1 4.73C15.71 5.12 15.52 5.63 15.52 6.25C15.52 6.87 15.71 7.38 16.1 7.78ZM27.65 4.35L25.96 4.35L25.96 7.47C25.96 7.73 26.02 7.92 26.15 8.04C26.28 8.16 26.47 8.23 26.72 8.26C26.97 8.27 27.28 8.26 27.65 8.24L27.65 10C26.32 10.14 25.38 10.02 24.83 9.62C24.29 9.22 24.02 8.51 24.02 7.47L24.02 4.35L22.72 4.35L22.72 2.5L24.02 2.5L24.02 0.98L25.96 0.4L25.96 2.5L27.65 2.5L27.65 4.35ZM32.35 10.21C31.22 10.21 30.28 9.83 29.52 9.07C28.77 8.31 28.39 7.37 28.39 6.25C28.39 5.13 28.77 4.19 29.52 3.42C30.28 2.66 31.22 2.28 32.35 2.28C33.08 2.28 33.75 2.46 34.35 2.81C34.95 3.16 35.4 3.63 35.71 4.22L34.05 5.2C33.9 4.89 33.67 4.64 33.36 4.46C33.06 4.28 32.72 4.19 32.34 4.19C31.76 4.19 31.28 4.39 30.9 4.78C30.52 5.15 30.33 5.65 30.33 6.25C30.33 6.84 30.52 7.33 30.9 7.71C31.28 8.09 31.76 8.28 32.34 8.28C32.73 8.28 33.07 8.2 33.37 8.03C33.68 7.85 33.91 7.6 34.06 7.29L35.74 8.26C35.41 8.84 34.95 9.32 34.35 9.68C33.75 10.03 33.08 10.21 32.35 10.21ZM40.93 2.28C41.76 2.28 42.43 2.56 42.96 3.11C43.5 3.66 43.77 4.42 43.77 5.39L43.77 10L41.84 10L41.84 5.63C41.84 5.13 41.7 4.75 41.43 4.49C41.16 4.22 40.8 4.09 40.35 4.09C39.85 4.09 39.45 4.24 39.15 4.55C38.85 4.86 38.7 5.33 38.7 5.95L38.7 10L36.77 10L36.77 -0.5L38.7 -0.5L38.7 3.34C39.17 2.64 39.91 2.28 40.93 2.28ZM51.86 10L48.33 -0.5L50.58 -0.5L53.15 7.57L55.7 -0.5L57.96 -0.5L54.42 10L51.86 10ZM59.55 1.59C59.23 1.59 58.95 1.48 58.71 1.25C58.48 1.01 58.37 0.73 58.37 0.41C58.37 0.09 58.48 -0.19 58.71 -0.43C58.95 -0.67 59.23 -0.79 59.55 -0.79C59.88 -0.79 60.16 -0.67 60.39 -0.43C60.63 -0.19 60.75 0.09 60.75 0.41C60.75 0.73 60.63 1.01 60.39 1.25C60.16 1.48 59.88 1.59 59.55 1.59ZM58.59 10L58.59 2.5L60.53 2.5L60.53 10L58.59 10ZM67.98 -0.5L69.92 -0.5L69.92 10L67.98 10L67.98 9.11C67.41 9.84 66.6 10.21 65.55 10.21C64.54 10.21 63.68 9.83 62.96 9.07C62.25 8.29 61.89 7.35 61.89 6.25C61.89 5.14 62.25 4.2 62.96 3.44C63.68 2.67 64.54 2.28 65.55 2.28C66.6 2.28 67.41 2.65 67.98 3.38L67.98 -0.5ZM64.41 7.78C64.81 8.16 65.31 8.36 65.91 8.36C66.51 8.36 67.01 8.16 67.4 7.78C67.79 7.38 67.98 6.87 67.98 6.25C67.98 5.63 67.79 5.12 67.4 4.73C67.01 4.33 66.51 4.13 65.91 4.13C65.31 4.13 64.81 4.33 64.41 4.73C64.02 5.12 63.83 5.63 63.83 6.25C63.83 6.87 64.02 7.38 64.41 7.78ZM73.32 7.04C73.58 7.98 74.29 8.45 75.44 8.45C76.18 8.45 76.74 8.2 77.12 7.7L78.68 8.6C77.94 9.67 76.85 10.21 75.41 10.21C74.17 10.21 73.17 9.83 72.42 9.08C71.67 8.33 71.3 7.39 71.3 6.25C71.3 5.12 71.67 4.17 72.41 3.42C73.15 2.66 74.1 2.28 75.26 2.28C76.36 2.28 77.26 2.66 77.97 3.42C78.69 4.19 79.05 5.13 79.05 6.25C79.05 6.5 79.03 6.76 78.98 7.04L73.32 7.04ZM73.29 5.54L77.12 5.54C77.01 5.03 76.78 4.65 76.43 4.4C76.09 4.15 75.7 4.03 75.26 4.03C74.74 4.03 74.31 4.16 73.97 4.43C73.63 4.69 73.4 5.06 73.29 5.54ZM86.73 9.07C85.96 9.83 85.02 10.21 83.91 10.21C82.8 10.21 81.86 9.83 81.09 9.07C80.33 8.29 79.95 7.35 79.95 6.25C79.95 5.14 80.33 4.2 81.09 3.44C81.86 2.67 82.8 2.28 83.91 2.28C85.02 2.28 85.96 2.67 86.73 3.44C87.5 4.2 87.89 5.14 87.89 6.25C87.89 7.35 87.5 8.29 86.73 9.07ZM82.46 7.73C82.85 8.12 83.33 8.32 83.91 8.32C84.49 8.32 84.98 8.12 85.37 7.73C85.76 7.34 85.95 6.84 85.95 6.25C85.95 5.65 85.76 5.15 85.37 4.76C84.98 4.37 84.49 4.17 83.91 4.17C83.33 4.17 82.85 4.37 82.46 4.76C82.08 5.15 81.89 5.65 81.89 6.25C81.89 6.84 82.08 7.34 82.46 7.73Z" fill="#AAAAAA" fill-opacity="1.000000" fill-rule="nonzero"/>
</svg>
